<svg viewBox="0 0 606 624" width="100%" xmlns="http://www.w3.org/2000/svg" font-family="system-ui,-apple-system,Segoe UI,sans-serif">
<rect x="0" y="0" width="606" height="624" rx="10" fill="#141413"/>
<text x="62" y="24" fill="#ffffff" font-size="14" font-weight="600">Design 2 — log_detector (K=1)</text>
<rect x="62.0" y="40.0" width="520.0" height="520.3" fill="none" stroke="#57564f" stroke-width="1" stroke-dasharray="4 4"/>
<text x="582.0" y="573.3" fill="#8a897f" font-size="10.5" text-anchor="end">Design 1 footprint (same scale)</text>
<rect x="62.0" y="40.0" width="286.1" height="281.0" fill="#1f1f1d" stroke="#3a3a37" stroke-width="1"/>
<rect x="62.00" y="310.56" width="4.98" height="10.01" fill="#d95926"/>
<rect x="70.12" y="310.56" width="4.98" height="10.01" fill="#d95926"/>
<rect x="78.24" y="310.56" width="4.98" height="10.01" fill="#d95926"/>
<rect x="86.37" y="310.56" width="4.98" height="10.01" fill="#d95926"/>
<rect x="94.49" y="310.56" width="4.98" height="10.01" fill="#d95926"/>
<rect x="102.61" y="310.56" width="4.98" height="10.01" fill="#d95926"/>
<rect x="110.73" y="310.56" width="4.98" height="10.01" fill="#d95926"/>
<rect x="118.86" y="310.56" width="4.98" height="10.01" fill="#d95926"/>
<rect x="126.98" y="310.56" width="4.98" height="10.01" fill="#d95926"/>
<rect x="135.10" y="310.56" width="4.98" height="10.01" fill="#d95926"/>
<rect x="143.22" y="310.56" width="4.98" height="10.01" fill="#d95926"/>
<rect x="151.35" y="310.56" width="4.98" height="10.01" fill="#d95926"/>
<rect x="159.47" y="310.56" width="4.98" height="10.01" fill="#d95926"/>
<rect x="167.59" y="310.56" width="4.98" height="10.01" fill="#9085e9"/>
<rect x="175.71" y="310.56" width="8.50" height="10.01" fill="#9085e9"/>
<rect x="189.25" y="310.56" width="4.98" height="10.01" fill="#9085e9"/>
<rect x="197.37" y="310.56" width="4.98" height="10.01" fill="#9085e9"/>
<rect x="205.50" y="310.56" width="12.02" height="10.01" fill="#9085e9"/>
<rect x="224.45" y="310.56" width="8.50" height="10.01" fill="#9085e9"/>
<rect x="237.99" y="310.56" width="4.98" height="10.01" fill="#9085e9"/>
<rect x="246.11" y="310.56" width="8.50" height="10.01" fill="#9085e9"/>
<rect x="259.65" y="310.56" width="10.26" height="10.01" fill="#9085e9"/>
<rect x="275.89" y="310.56" width="8.50" height="10.01" fill="#9085e9"/>
<rect x="289.43" y="310.56" width="10.26" height="10.01" fill="#9085e9"/>
<rect x="305.67" y="310.56" width="6.74" height="10.01" fill="#9085e9"/>
<rect x="316.50" y="310.56" width="6.74" height="10.01" fill="#9085e9"/>
<rect x="327.33" y="310.56" width="10.26" height="10.01" fill="#9085e9"/>
<rect x="62.00" y="300.15" width="4.98" height="10.01" fill="#9085e9"/>
<rect x="70.12" y="300.15" width="8.50" height="10.01" fill="#9085e9"/>
<rect x="83.66" y="300.15" width="4.98" height="10.01" fill="#d95926"/>
<rect x="91.78" y="300.15" width="4.98" height="10.01" fill="#9085e9"/>
<rect x="99.90" y="300.15" width="4.98" height="10.01" fill="#9085e9"/>
<rect x="108.03" y="300.15" width="12.02" height="10.01" fill="#9085e9"/>
<rect x="126.98" y="300.15" width="8.50" height="10.01" fill="#9085e9"/>
<rect x="140.52" y="300.15" width="4.98" height="10.01" fill="#9085e9"/>
<rect x="148.64" y="300.15" width="8.50" height="10.01" fill="#9085e9"/>
<rect x="162.18" y="300.15" width="10.26" height="10.01" fill="#9085e9"/>
<rect x="178.42" y="300.15" width="4.98" height="10.01" fill="#9085e9"/>
<rect x="186.54" y="300.15" width="8.50" height="10.01" fill="#9085e9"/>
<rect x="200.08" y="300.15" width="4.98" height="10.01" fill="#9085e9"/>
<rect x="208.20" y="300.15" width="12.02" height="10.01" fill="#9085e9"/>
<rect x="227.16" y="300.15" width="4.98" height="10.01" fill="#9085e9"/>
<rect x="235.28" y="300.15" width="6.74" height="10.01" fill="#9085e9"/>
<rect x="246.11" y="300.15" width="4.98" height="10.01" fill="#d95926"/>
<rect x="254.23" y="300.15" width="4.98" height="10.01" fill="#9085e9"/>
<rect x="262.35" y="300.15" width="4.98" height="10.01" fill="#9085e9"/>
<rect x="270.48" y="300.15" width="4.98" height="10.01" fill="#9085e9"/>
<rect x="278.60" y="300.15" width="6.74" height="10.01" fill="#9085e9"/>
<rect x="289.43" y="300.15" width="4.98" height="10.01" fill="#9085e9"/>
<rect x="297.55" y="300.15" width="4.98" height="10.01" fill="#9085e9"/>
<rect x="305.67" y="300.15" width="4.98" height="10.01" fill="#9085e9"/>
<rect x="313.80" y="300.15" width="8.50" height="10.01" fill="#9085e9"/>
<rect x="327.33" y="300.15" width="8.50" height="10.01" fill="#d95926"/>
<rect x="62.00" y="289.75" width="8.50" height="10.01" fill="#d95926"/>
<rect x="75.54" y="289.75" width="8.50" height="10.01" fill="#d95926"/>
<rect x="89.07" y="289.75" width="8.50" height="10.01" fill="#d95926"/>
<rect x="102.61" y="289.75" width="4.98" height="10.01" fill="#9085e9"/>
<rect x="110.73" y="289.75" width="4.98" height="10.01" fill="#9085e9"/>
<rect x="118.86" y="289.75" width="4.98" height="10.01" fill="#9085e9"/>
<rect x="126.98" y="289.75" width="4.98" height="10.01" fill="#9085e9"/>
<rect x="135.10" y="289.75" width="4.98" height="10.01" fill="#9085e9"/>
<rect x="143.22" y="289.75" width="8.50" height="10.01" fill="#d95926"/>
<rect x="156.76" y="289.75" width="12.02" height="10.01" fill="#9085e9"/>
<rect x="175.71" y="289.75" width="12.02" height="10.01" fill="#9085e9"/>
<rect x="194.67" y="289.75" width="4.98" height="10.01" fill="#9085e9"/>
<rect x="202.79" y="289.75" width="6.74" height="10.01" fill="#9085e9"/>
<rect x="213.62" y="289.75" width="10.26" height="10.01" fill="#9085e9"/>
<rect x="229.86" y="289.75" width="4.98" height="10.01" fill="#9085e9"/>
<rect x="237.99" y="289.75" width="6.74" height="10.01" fill="#9085e9"/>
<rect x="248.82" y="289.75" width="4.98" height="10.01" fill="#9085e9"/>
<rect x="256.94" y="289.75" width="8.50" height="10.01" fill="#9085e9"/>
<rect x="270.48" y="289.75" width="4.98" height="10.01" fill="#9085e9"/>
<rect x="278.60" y="289.75" width="4.98" height="10.01" fill="#9085e9"/>
<rect x="286.72" y="289.75" width="6.74" height="10.01" fill="#9085e9"/>
<rect x="297.55" y="289.75" width="4.98" height="10.01" fill="#9085e9"/>
<rect x="305.67" y="289.75" width="6.74" height="10.01" fill="#9085e9"/>
<rect x="316.50" y="289.75" width="12.02" height="10.01" fill="#9085e9"/>
<rect x="335.46" y="289.75" width="6.74" height="10.01" fill="#9085e9"/>
<rect x="62.00" y="279.34" width="6.74" height="10.01" fill="#9085e9"/>
<rect x="72.83" y="279.34" width="12.02" height="10.01" fill="#9085e9"/>
<rect x="91.78" y="279.34" width="6.74" height="10.01" fill="#9085e9"/>
<rect x="102.61" y="279.34" width="12.02" height="10.01" fill="#9085e9"/>
<rect x="121.56" y="279.34" width="4.98" height="10.01" fill="#9085e9"/>
<rect x="129.69" y="279.34" width="12.02" height="10.01" fill="#9085e9"/>
<rect x="148.64" y="279.34" width="4.98" height="10.01" fill="#9085e9"/>
<rect x="156.76" y="279.34" width="6.74" height="10.01" fill="#9085e9"/>
<rect x="167.59" y="279.34" width="4.98" height="10.01" fill="#9085e9"/>
<rect x="175.71" y="279.34" width="6.74" height="10.01" fill="#9085e9"/>
<rect x="186.54" y="279.34" width="12.02" height="10.01" fill="#9085e9"/>
<rect x="205.50" y="279.34" width="8.50" height="10.01" fill="#d95926"/>
<rect x="219.03" y="279.34" width="6.74" height="10.01" fill="#9085e9"/>
<rect x="229.86" y="279.34" width="8.50" height="10.01" fill="#9085e9"/>
<rect x="243.40" y="279.34" width="12.02" height="10.01" fill="#9085e9"/>
<rect x="262.35" y="279.34" width="10.26" height="10.01" fill="#9085e9"/>
<rect x="278.60" y="279.34" width="6.74" height="10.01" fill="#9085e9"/>
<rect x="289.43" y="279.34" width="8.50" height="10.01" fill="#d95926"/>
<rect x="302.97" y="279.34" width="10.26" height="10.01" fill="#9085e9"/>
<rect x="319.21" y="279.34" width="12.02" height="10.01" fill="#9085e9"/>
<rect x="338.16" y="279.34" width="4.98" height="10.01" fill="#9085e9"/>
<rect x="62.00" y="268.94" width="6.74" height="10.01" fill="#9085e9"/>
<rect x="72.83" y="268.94" width="6.74" height="10.01" fill="#9085e9"/>
<rect x="83.66" y="268.94" width="8.50" height="10.01" fill="#9085e9"/>
<rect x="97.20" y="268.94" width="4.98" height="10.01" fill="#9085e9"/>
<rect x="105.32" y="268.94" width="10.26" height="10.01" fill="#9085e9"/>
<rect x="121.56" y="268.94" width="8.50" height="10.01" fill="#9085e9"/>
<rect x="135.10" y="268.94" width="12.02" height="10.01" fill="#9085e9"/>
<rect x="154.05" y="268.94" width="6.74" height="10.01" fill="#9085e9"/>
<rect x="164.88" y="268.94" width="8.50" height="10.01" fill="#9085e9"/>
<rect x="178.42" y="268.94" width="12.02" height="10.01" fill="#9085e9"/>
<rect x="197.37" y="268.94" width="6.74" height="10.01" fill="#9085e9"/>
<rect x="208.20" y="268.94" width="8.50" height="10.01" fill="#9085e9"/>
<rect x="221.74" y="268.94" width="8.50" height="10.01" fill="#9085e9"/>
<rect x="235.28" y="268.94" width="4.98" height="10.01" fill="#9085e9"/>
<rect x="243.40" y="268.94" width="10.26" height="10.01" fill="#9085e9"/>
<rect x="259.65" y="268.94" width="12.02" height="10.01" fill="#9085e9"/>
<rect x="278.60" y="268.94" width="8.50" height="10.01" fill="#9085e9"/>
<rect x="292.14" y="268.94" width="12.02" height="10.01" fill="#9085e9"/>
<rect x="311.09" y="268.94" width="12.02" height="10.01" fill="#9085e9"/>
<rect x="330.04" y="268.94" width="4.98" height="10.01" fill="#9085e9"/>
<rect x="62.00" y="258.53" width="12.02" height="10.01" fill="#199e70"/>
<rect x="80.95" y="258.53" width="12.02" height="10.01" fill="#9085e9"/>
<rect x="99.90" y="258.53" width="12.02" height="10.01" fill="#199e70"/>
<rect x="118.86" y="258.53" width="13.78" height="10.01" fill="#199e70"/>
<rect x="140.52" y="258.53" width="12.02" height="10.01" fill="#199e70"/>
<rect x="159.47" y="258.53" width="10.26" height="10.01" fill="#9085e9"/>
<rect x="175.71" y="258.53" width="12.02" height="10.01" fill="#199e70"/>
<rect x="194.67" y="258.53" width="12.02" height="10.01" fill="#199e70"/>
<rect x="213.62" y="258.53" width="12.02" height="10.01" fill="#199e70"/>
<rect x="232.57" y="258.53" width="10.26" height="10.01" fill="#9085e9"/>
<rect x="248.82" y="258.53" width="6.74" height="10.01" fill="#9085e9"/>
<rect x="259.65" y="258.53" width="8.50" height="10.01" fill="#d95926"/>
<rect x="273.18" y="258.53" width="6.74" height="10.01" fill="#9085e9"/>
<rect x="284.01" y="258.53" width="6.74" height="10.01" fill="#9085e9"/>
<rect x="294.84" y="258.53" width="8.50" height="10.01" fill="#9085e9"/>
<rect x="308.38" y="258.53" width="8.50" height="10.01" fill="#d95926"/>
<rect x="321.92" y="258.53" width="10.26" height="10.01" fill="#9085e9"/>
<rect x="338.16" y="258.53" width="4.98" height="10.01" fill="#d95926"/>
<rect x="62.00" y="248.12" width="12.02" height="10.01" fill="#9085e9"/>
<rect x="80.95" y="248.12" width="4.98" height="10.01" fill="#9085e9"/>
<rect x="89.07" y="248.12" width="6.74" height="10.01" fill="#9085e9"/>
<rect x="99.90" y="248.12" width="12.02" height="10.01" fill="#9085e9"/>
<rect x="118.86" y="248.12" width="4.98" height="10.01" fill="#9085e9"/>
<rect x="126.98" y="248.12" width="6.74" height="10.01" fill="#9085e9"/>
<rect x="137.81" y="248.12" width="10.26" height="10.01" fill="#9085e9"/>
<rect x="154.05" y="248.12" width="6.74" height="10.01" fill="#9085e9"/>
<rect x="164.88" y="248.12" width="8.50" height="10.01" fill="#9085e9"/>
<rect x="178.42" y="248.12" width="4.98" height="10.01" fill="#9085e9"/>
<rect x="186.54" y="248.12" width="10.26" height="10.01" fill="#9085e9"/>
<rect x="202.79" y="248.12" width="8.50" height="10.01" fill="#9085e9"/>
<rect x="216.33" y="248.12" width="12.02" height="10.01" fill="#9085e9"/>
<rect x="235.28" y="248.12" width="12.02" height="10.01" fill="#9085e9"/>
<rect x="254.23" y="248.12" width="8.50" height="10.01" fill="#9085e9"/>
<rect x="267.77" y="248.12" width="6.74" height="10.01" fill="#9085e9"/>
<rect x="278.60" y="248.12" width="10.26" height="10.01" fill="#9085e9"/>
<rect x="294.84" y="248.12" width="12.02" height="10.01" fill="#9085e9"/>
<rect x="313.80" y="248.12" width="6.74" height="10.01" fill="#9085e9"/>
<rect x="324.63" y="248.12" width="8.50" height="10.01" fill="#9085e9"/>
<rect x="62.00" y="237.72" width="10.26" height="10.01" fill="#9085e9"/>
<rect x="78.24" y="237.72" width="10.26" height="10.01" fill="#9085e9"/>
<rect x="94.49" y="237.72" width="8.50" height="10.01" fill="#9085e9"/>
<rect x="108.03" y="237.72" width="10.26" height="10.01" fill="#9085e9"/>
<rect x="124.27" y="237.72" width="4.98" height="10.01" fill="#9085e9"/>
<rect x="132.39" y="237.72" width="8.50" height="10.01" fill="#9085e9"/>
<rect x="145.93" y="237.72" width="12.02" height="10.01" fill="#199e70"/>
<rect x="164.88" y="237.72" width="12.02" height="10.01" fill="#9085e9"/>
<rect x="183.84" y="237.72" width="10.26" height="10.01" fill="#9085e9"/>
<rect x="200.08" y="237.72" width="4.98" height="10.01" fill="#9085e9"/>
<rect x="208.20" y="237.72" width="6.74" height="10.01" fill="#9085e9"/>
<rect x="219.03" y="237.72" width="4.98" height="10.01" fill="#9085e9"/>
<rect x="227.16" y="237.72" width="6.74" height="10.01" fill="#9085e9"/>
<rect x="237.99" y="237.72" width="8.50" height="10.01" fill="#9085e9"/>
<rect x="251.52" y="237.72" width="12.02" height="10.01" fill="#199e70"/>
<rect x="270.48" y="237.72" width="12.02" height="10.01" fill="#199e70"/>
<rect x="289.43" y="237.72" width="8.50" height="10.01" fill="#d95926"/>
<rect x="302.97" y="237.72" width="8.50" height="10.01" fill="#d95926"/>
<rect x="316.50" y="237.72" width="12.02" height="10.01" fill="#199e70"/>
<rect x="62.00" y="227.31" width="13.78" height="10.01" fill="#199e70"/>
<rect x="83.66" y="227.31" width="4.98" height="10.01" fill="#9085e9"/>
<rect x="91.78" y="227.31" width="4.98" height="10.01" fill="#9085e9"/>
<rect x="99.90" y="227.31" width="8.50" height="10.01" fill="#9085e9"/>
<rect x="113.44" y="227.31" width="12.02" height="10.01" fill="#9085e9"/>
<rect x="132.39" y="227.31" width="6.74" height="10.01" fill="#9085e9"/>
<rect x="143.22" y="227.31" width="6.74" height="10.01" fill="#9085e9"/>
<rect x="154.05" y="227.31" width="13.78" height="10.01" fill="#199e70"/>
<rect x="175.71" y="227.31" width="10.26" height="10.01" fill="#9085e9"/>
<rect x="191.96" y="227.31" width="10.26" height="10.01" fill="#9085e9"/>
<rect x="208.20" y="227.31" width="8.50" height="10.01" fill="#d95926"/>
<rect x="221.74" y="227.31" width="8.50" height="10.01" fill="#9085e9"/>
<rect x="235.28" y="227.31" width="12.02" height="10.01" fill="#199e70"/>
<rect x="254.23" y="227.31" width="4.98" height="10.01" fill="#9085e9"/>
<rect x="262.35" y="227.31" width="12.02" height="10.01" fill="#199e70"/>
<rect x="281.31" y="227.31" width="12.02" height="10.01" fill="#199e70"/>
<rect x="300.26" y="227.31" width="8.50" height="10.01" fill="#9085e9"/>
<rect x="313.80" y="227.31" width="12.02" height="10.01" fill="#199e70"/>
<rect x="332.75" y="227.31" width="4.98" height="10.01" fill="#9085e9"/>
<rect x="62.00" y="216.90" width="4.98" height="10.01" fill="#9085e9"/>
<rect x="70.12" y="216.90" width="12.02" height="10.01" fill="#199e70"/>
<rect x="89.07" y="216.90" width="12.02" height="10.01" fill="#199e70"/>
<rect x="108.03" y="216.90" width="6.74" height="10.01" fill="#9085e9"/>
<rect x="118.86" y="216.90" width="4.98" height="10.01" fill="#9085e9"/>
<rect x="126.98" y="216.90" width="12.02" height="10.01" fill="#199e70"/>
<rect x="145.93" y="216.90" width="6.74" height="10.01" fill="#9085e9"/>
<rect x="156.76" y="216.90" width="12.02" height="10.01" fill="#199e70"/>
<rect x="175.71" y="216.90" width="4.98" height="10.01" fill="#d95926"/>
<rect x="183.84" y="216.90" width="12.02" height="10.01" fill="#199e70"/>
<rect x="202.79" y="216.90" width="12.02" height="10.01" fill="#199e70"/>
<rect x="221.74" y="216.90" width="12.02" height="10.01" fill="#199e70"/>
<rect x="240.69" y="216.90" width="8.50" height="10.01" fill="#9085e9"/>
<rect x="254.23" y="216.90" width="6.74" height="10.01" fill="#9085e9"/>
<rect x="265.06" y="216.90" width="4.98" height="10.01" fill="#d95926"/>
<rect x="273.18" y="216.90" width="8.50" height="10.01" fill="#9085e9"/>
<rect x="286.72" y="216.90" width="8.50" height="10.01" fill="#9085e9"/>
<rect x="300.26" y="216.90" width="10.26" height="10.01" fill="#9085e9"/>
<rect x="316.50" y="216.90" width="13.78" height="10.01" fill="#199e70"/>
<rect x="338.16" y="216.90" width="4.98" height="10.01" fill="#9085e9"/>
<rect x="62.00" y="206.50" width="13.78" height="10.01" fill="#199e70"/>
<rect x="83.66" y="206.50" width="6.74" height="10.01" fill="#9085e9"/>
<rect x="94.49" y="206.50" width="12.02" height="10.01" fill="#9085e9"/>
<rect x="113.44" y="206.50" width="8.50" height="10.01" fill="#d95926"/>
<rect x="126.98" y="206.50" width="10.26" height="10.01" fill="#9085e9"/>
<rect x="143.22" y="206.50" width="10.26" height="10.01" fill="#9085e9"/>
<rect x="159.47" y="206.50" width="4.98" height="10.01" fill="#9085e9"/>
<rect x="167.59" y="206.50" width="4.98" height="10.01" fill="#9085e9"/>
<rect x="175.71" y="206.50" width="13.78" height="10.01" fill="#199e70"/>
<rect x="197.37" y="206.50" width="13.78" height="10.01" fill="#c98500"/>
<rect x="219.03" y="206.50" width="12.02" height="10.01" fill="#199e70"/>
<rect x="237.99" y="206.50" width="13.78" height="10.01" fill="#c98500"/>
<rect x="259.65" y="206.50" width="13.78" height="10.01" fill="#c98500"/>
<rect x="281.31" y="206.50" width="12.02" height="10.01" fill="#199e70"/>
<rect x="300.26" y="206.50" width="8.50" height="10.01" fill="#d95926"/>
<rect x="313.80" y="206.50" width="4.98" height="10.01" fill="#9085e9"/>
<rect x="321.92" y="206.50" width="12.02" height="10.01" fill="#9085e9"/>
<rect x="62.00" y="196.09" width="10.26" height="10.01" fill="#9085e9"/>
<rect x="78.24" y="196.09" width="6.74" height="10.01" fill="#9085e9"/>
<rect x="89.07" y="196.09" width="10.26" height="10.01" fill="#9085e9"/>
<rect x="105.32" y="196.09" width="12.02" height="10.01" fill="#9085e9"/>
<rect x="124.27" y="196.09" width="6.74" height="10.01" fill="#9085e9"/>
<rect x="135.10" y="196.09" width="6.74" height="10.01" fill="#9085e9"/>
<rect x="145.93" y="196.09" width="13.78" height="10.01" fill="#199e70"/>
<rect x="167.59" y="196.09" width="8.50" height="10.01" fill="#9085e9"/>
<rect x="181.13" y="196.09" width="6.74" height="10.01" fill="#9085e9"/>
<rect x="191.96" y="196.09" width="6.74" height="10.01" fill="#9085e9"/>
<rect x="202.79" y="196.09" width="10.26" height="10.01" fill="#9085e9"/>
<rect x="219.03" y="196.09" width="12.02" height="10.01" fill="#9085e9"/>
<rect x="237.99" y="196.09" width="6.74" height="10.01" fill="#9085e9"/>
<rect x="248.82" y="196.09" width="4.98" height="10.01" fill="#9085e9"/>
<rect x="256.94" y="196.09" width="6.74" height="10.01" fill="#9085e9"/>
<rect x="267.77" y="196.09" width="12.02" height="10.01" fill="#9085e9"/>
<rect x="286.72" y="196.09" width="6.74" height="10.01" fill="#9085e9"/>
<rect x="297.55" y="196.09" width="6.74" height="10.01" fill="#9085e9"/>
<rect x="308.38" y="196.09" width="12.02" height="10.01" fill="#199e70"/>
<rect x="62.00" y="185.69" width="13.78" height="10.01" fill="#9085e9"/>
<rect x="83.66" y="185.69" width="13.78" height="10.01" fill="#c98500"/>
<rect x="105.32" y="185.69" width="4.98" height="10.01" fill="#9085e9"/>
<rect x="113.44" y="185.69" width="6.74" height="10.01" fill="#9085e9"/>
<rect x="124.27" y="185.69" width="6.74" height="10.01" fill="#9085e9"/>
<rect x="135.10" y="185.69" width="4.98" height="10.01" fill="#9085e9"/>
<rect x="143.22" y="185.69" width="6.74" height="10.01" fill="#9085e9"/>
<rect x="154.05" y="185.69" width="4.98" height="10.01" fill="#d95926"/>
<rect x="162.18" y="185.69" width="8.50" height="10.01" fill="#9085e9"/>
<rect x="175.71" y="185.69" width="8.50" height="10.01" fill="#9085e9"/>
<rect x="189.25" y="185.69" width="10.26" height="10.01" fill="#9085e9"/>
<rect x="205.50" y="185.69" width="6.74" height="10.01" fill="#9085e9"/>
<rect x="216.33" y="185.69" width="10.26" height="10.01" fill="#9085e9"/>
<rect x="232.57" y="185.69" width="4.98" height="10.01" fill="#9085e9"/>
<rect x="240.69" y="185.69" width="6.74" height="10.01" fill="#9085e9"/>
<rect x="251.52" y="185.69" width="4.98" height="10.01" fill="#9085e9"/>
<rect x="259.65" y="185.69" width="6.74" height="10.01" fill="#9085e9"/>
<rect x="270.48" y="185.69" width="4.98" height="10.01" fill="#9085e9"/>
<rect x="278.60" y="185.69" width="4.98" height="10.01" fill="#9085e9"/>
<rect x="286.72" y="185.69" width="6.74" height="10.01" fill="#9085e9"/>
<rect x="297.55" y="185.69" width="6.74" height="10.01" fill="#9085e9"/>
<rect x="308.38" y="185.69" width="8.50" height="10.01" fill="#9085e9"/>
<rect x="321.92" y="185.69" width="4.98" height="10.01" fill="#9085e9"/>
<rect x="330.04" y="185.69" width="10.26" height="10.01" fill="#9085e9"/>
<rect x="62.00" y="175.28" width="6.74" height="10.01" fill="#9085e9"/>
<rect x="72.83" y="175.28" width="6.74" height="10.01" fill="#9085e9"/>
<rect x="83.66" y="175.28" width="8.50" height="10.01" fill="#9085e9"/>
<rect x="97.20" y="175.28" width="10.26" height="10.01" fill="#9085e9"/>
<rect x="113.44" y="175.28" width="4.98" height="10.01" fill="#9085e9"/>
<rect x="121.56" y="175.28" width="15.54" height="10.01" fill="#9085e9"/>
<rect x="145.93" y="175.28" width="8.50" height="10.01" fill="#9085e9"/>
<rect x="159.47" y="175.28" width="8.50" height="10.01" fill="#9085e9"/>
<rect x="173.01" y="175.28" width="6.74" height="10.01" fill="#9085e9"/>
<rect x="183.84" y="175.28" width="6.74" height="10.01" fill="#9085e9"/>
<rect x="194.67" y="175.28" width="10.26" height="10.01" fill="#9085e9"/>
<rect x="210.91" y="175.28" width="6.74" height="10.01" fill="#9085e9"/>
<rect x="221.74" y="175.28" width="6.74" height="10.01" fill="#9085e9"/>
<rect x="232.57" y="175.28" width="6.74" height="10.01" fill="#9085e9"/>
<rect x="243.40" y="175.28" width="6.74" height="10.01" fill="#9085e9"/>
<rect x="254.23" y="175.28" width="12.02" height="10.01" fill="#9085e9"/>
<rect x="273.18" y="175.28" width="10.26" height="10.01" fill="#9085e9"/>
<rect x="289.43" y="175.28" width="6.74" height="10.01" fill="#9085e9"/>
<rect x="300.26" y="175.28" width="6.74" height="10.01" fill="#9085e9"/>
<rect x="311.09" y="175.28" width="10.26" height="10.01" fill="#9085e9"/>
<rect x="327.33" y="175.28" width="6.74" height="10.01" fill="#9085e9"/>
<rect x="62.00" y="164.87" width="8.50" height="10.01" fill="#9085e9"/>
<rect x="75.54" y="164.87" width="4.98" height="10.01" fill="#9085e9"/>
<rect x="83.66" y="164.87" width="4.98" height="10.01" fill="#9085e9"/>
<rect x="91.78" y="164.87" width="8.50" height="10.01" fill="#d95926"/>
<rect x="105.32" y="164.87" width="4.98" height="10.01" fill="#9085e9"/>
<rect x="113.44" y="164.87" width="13.78" height="10.01" fill="#9085e9"/>
<rect x="135.10" y="164.87" width="6.74" height="10.01" fill="#9085e9"/>
<rect x="145.93" y="164.87" width="6.74" height="10.01" fill="#9085e9"/>
<rect x="156.76" y="164.87" width="8.50" height="10.01" fill="#9085e9"/>
<rect x="170.30" y="164.87" width="12.02" height="10.01" fill="#9085e9"/>
<rect x="189.25" y="164.87" width="8.50" height="10.01" fill="#9085e9"/>
<rect x="202.79" y="164.87" width="8.50" height="10.01" fill="#9085e9"/>
<rect x="216.33" y="164.87" width="6.74" height="10.01" fill="#9085e9"/>
<rect x="227.16" y="164.87" width="6.74" height="10.01" fill="#9085e9"/>
<rect x="237.99" y="164.87" width="12.02" height="10.01" fill="#9085e9"/>
<rect x="256.94" y="164.87" width="6.74" height="10.01" fill="#9085e9"/>
<rect x="267.77" y="164.87" width="6.74" height="10.01" fill="#9085e9"/>
<rect x="278.60" y="164.87" width="8.50" height="10.01" fill="#9085e9"/>
<rect x="292.14" y="164.87" width="10.26" height="10.01" fill="#9085e9"/>
<rect x="308.38" y="164.87" width="8.50" height="10.01" fill="#9085e9"/>
<rect x="321.92" y="164.87" width="13.78" height="10.01" fill="#9085e9"/>
<rect x="62.00" y="154.47" width="12.02" height="10.01" fill="#9085e9"/>
<rect x="80.95" y="154.47" width="6.74" height="10.01" fill="#9085e9"/>
<rect x="91.78" y="154.47" width="8.50" height="10.01" fill="#9085e9"/>
<rect x="105.32" y="154.47" width="12.02" height="10.01" fill="#9085e9"/>
<rect x="124.27" y="154.47" width="8.50" height="10.01" fill="#d95926"/>
<rect x="137.81" y="154.47" width="4.98" height="10.01" fill="#9085e9"/>
<rect x="145.93" y="154.47" width="6.74" height="10.01" fill="#9085e9"/>
<rect x="156.76" y="154.47" width="15.54" height="10.01" fill="#9085e9"/>
<rect x="181.13" y="154.47" width="6.74" height="10.01" fill="#9085e9"/>
<rect x="191.96" y="154.47" width="8.50" height="10.01" fill="#9085e9"/>
<rect x="205.50" y="154.47" width="4.98" height="10.01" fill="#9085e9"/>
<rect x="213.62" y="154.47" width="6.74" height="10.01" fill="#9085e9"/>
<rect x="224.45" y="154.47" width="8.50" height="10.01" fill="#9085e9"/>
<rect x="237.99" y="154.47" width="13.78" height="10.01" fill="#199e70"/>
<rect x="259.65" y="154.47" width="13.78" height="10.01" fill="#199e70"/>
<rect x="281.31" y="154.47" width="6.74" height="10.01" fill="#9085e9"/>
<rect x="292.14" y="154.47" width="4.98" height="10.01" fill="#9085e9"/>
<rect x="300.26" y="154.47" width="4.98" height="10.01" fill="#9085e9"/>
<rect x="308.38" y="154.47" width="4.98" height="10.01" fill="#9085e9"/>
<rect x="316.50" y="154.47" width="4.98" height="10.01" fill="#9085e9"/>
<rect x="324.63" y="154.47" width="8.50" height="10.01" fill="#9085e9"/>
<rect x="338.16" y="154.47" width="4.98" height="10.01" fill="#9085e9"/>
<rect x="62.00" y="144.06" width="12.02" height="10.01" fill="#9085e9"/>
<rect x="80.95" y="144.06" width="6.74" height="10.01" fill="#9085e9"/>
<rect x="91.78" y="144.06" width="10.26" height="10.01" fill="#9085e9"/>
<rect x="108.03" y="144.06" width="27.86" height="10.01" fill="#3987e5"/>
<rect x="151.35" y="144.06" width="27.86" height="10.01" fill="#3987e5"/>
<rect x="194.67" y="144.06" width="27.86" height="10.01" fill="#3987e5"/>
<rect x="237.99" y="144.06" width="27.86" height="10.01" fill="#3987e5"/>
<rect x="281.31" y="144.06" width="27.86" height="10.01" fill="#3987e5"/>
<rect x="62.00" y="133.66" width="27.86" height="10.01" fill="#3987e5"/>
<rect x="105.32" y="133.66" width="27.86" height="10.01" fill="#3987e5"/>
<rect x="148.64" y="133.66" width="27.86" height="10.01" fill="#3987e5"/>
<rect x="191.96" y="133.66" width="27.86" height="10.01" fill="#3987e5"/>
<rect x="235.28" y="133.66" width="27.86" height="10.01" fill="#3987e5"/>
<rect x="278.60" y="133.66" width="27.86" height="10.01" fill="#3987e5"/>
<rect x="62.00" y="123.25" width="27.86" height="10.01" fill="#3987e5"/>
<rect x="105.32" y="123.25" width="27.86" height="10.01" fill="#3987e5"/>
<rect x="148.64" y="123.25" width="27.86" height="10.01" fill="#3987e5"/>
<rect x="191.96" y="123.25" width="27.86" height="10.01" fill="#3987e5"/>
<rect x="235.28" y="123.25" width="27.86" height="10.01" fill="#3987e5"/>
<rect x="278.60" y="123.25" width="27.86" height="10.01" fill="#3987e5"/>
<rect x="62.00" y="112.84" width="27.86" height="10.01" fill="#3987e5"/>
<rect x="105.32" y="112.84" width="27.86" height="10.01" fill="#3987e5"/>
<rect x="148.64" y="112.84" width="27.86" height="10.01" fill="#3987e5"/>
<rect x="191.96" y="112.84" width="27.86" height="10.01" fill="#3987e5"/>
<rect x="235.28" y="112.84" width="27.86" height="10.01" fill="#3987e5"/>
<rect x="278.60" y="112.84" width="27.86" height="10.01" fill="#3987e5"/>
<rect x="62.00" y="102.44" width="27.86" height="10.01" fill="#3987e5"/>
<rect x="105.32" y="102.44" width="27.86" height="10.01" fill="#3987e5"/>
<rect x="148.64" y="102.44" width="27.86" height="10.01" fill="#3987e5"/>
<rect x="191.96" y="102.44" width="27.86" height="10.01" fill="#3987e5"/>
<rect x="235.28" y="102.44" width="27.86" height="10.01" fill="#3987e5"/>
<rect x="278.60" y="102.44" width="27.86" height="10.01" fill="#3987e5"/>
<rect x="62.00" y="92.03" width="27.86" height="10.01" fill="#3987e5"/>
<rect x="105.32" y="92.03" width="27.86" height="10.01" fill="#3987e5"/>
<rect x="148.64" y="92.03" width="27.86" height="10.01" fill="#3987e5"/>
<rect x="191.96" y="92.03" width="27.86" height="10.01" fill="#3987e5"/>
<rect x="235.28" y="92.03" width="27.86" height="10.01" fill="#3987e5"/>
<rect x="278.60" y="92.03" width="27.86" height="10.01" fill="#3987e5"/>
<rect x="62.00" y="81.62" width="27.86" height="10.01" fill="#3987e5"/>
<rect x="105.32" y="81.62" width="27.86" height="10.01" fill="#3987e5"/>
<rect x="148.64" y="81.62" width="27.86" height="10.01" fill="#3987e5"/>
<rect x="191.96" y="81.62" width="27.86" height="10.01" fill="#3987e5"/>
<rect x="235.28" y="81.62" width="27.86" height="10.01" fill="#3987e5"/>
<rect x="278.60" y="81.62" width="27.86" height="10.01" fill="#3987e5"/>
<rect x="62.00" y="71.22" width="27.86" height="10.01" fill="#3987e5"/>
<rect x="105.32" y="71.22" width="27.86" height="10.01" fill="#3987e5"/>
<rect x="148.64" y="71.22" width="27.86" height="10.01" fill="#3987e5"/>
<rect x="191.96" y="71.22" width="27.86" height="10.01" fill="#3987e5"/>
<rect x="235.28" y="71.22" width="27.86" height="10.01" fill="#3987e5"/>
<rect x="278.60" y="71.22" width="27.86" height="10.01" fill="#3987e5"/>
<rect x="62.00" y="60.81" width="27.86" height="10.01" fill="#3987e5"/>
<rect x="105.32" y="60.81" width="27.86" height="10.01" fill="#3987e5"/>
<rect x="148.64" y="60.81" width="27.86" height="10.01" fill="#3987e5"/>
<rect x="191.96" y="60.81" width="27.86" height="10.01" fill="#3987e5"/>
<rect x="235.28" y="60.81" width="27.86" height="10.01" fill="#3987e5"/>
<rect x="278.60" y="60.81" width="27.86" height="10.01" fill="#3987e5"/>
<rect x="62.00" y="50.41" width="27.86" height="10.01" fill="#3987e5"/>
<rect x="105.32" y="50.41" width="27.86" height="10.01" fill="#3987e5"/>
<rect x="148.64" y="50.41" width="27.86" height="10.01" fill="#3987e5"/>
<rect x="191.96" y="50.41" width="27.86" height="10.01" fill="#3987e5"/>
<rect x="235.28" y="50.41" width="27.86" height="10.01" fill="#3987e5"/>
<rect x="278.60" y="50.41" width="27.86" height="10.01" fill="#3987e5"/>
<rect x="62.00" y="40.00" width="27.86" height="10.01" fill="#3987e5"/>
<rect x="105.32" y="40.00" width="27.86" height="10.01" fill="#3987e5"/>
<rect x="148.64" y="40.00" width="27.86" height="10.01" fill="#3987e5"/>
<rect x="191.96" y="40.00" width="27.86" height="10.01" fill="#3987e5"/>
<rect x="235.28" y="40.00" width="27.86" height="10.01" fill="#3987e5"/>
<rect x="278.60" y="40.00" width="27.86" height="10.01" fill="#3987e5"/>
<rect x="62.00" y="40.00" width="27.86" height="10.01" fill="#3987e5"/>
<rect x="105.32" y="40.00" width="27.86" height="10.01" fill="#3987e5"/>
<rect x="148.64" y="40.00" width="27.86" height="10.01" fill="#3987e5"/>
<rect x="191.96" y="40.00" width="27.86" height="10.01" fill="#3987e5"/>
<rect x="235.28" y="40.00" width="27.86" height="10.01" fill="#3987e5"/>
<rect x="278.60" y="40.00" width="27.86" height="10.01" fill="#3987e5"/>
<rect x="62.00" y="40.00" width="27.86" height="10.01" fill="#3987e5"/>
<rect x="105.32" y="40.00" width="27.86" height="10.01" fill="#3987e5"/>
<rect x="148.64" y="40.00" width="27.86" height="10.01" fill="#3987e5"/>
<line x1="62.0" y1="582.3" x2="348.1" y2="582.3" stroke="#c3c2b7" stroke-width="1"/>
<line x1="62.0" y1="578.3" x2="62.0" y2="586.3" stroke="#c3c2b7" stroke-width="1"/>
<line x1="348.1" y1="578.3" x2="348.1" y2="586.3" stroke="#c3c2b7" stroke-width="1"/>
<text x="205.0" y="600.3" fill="#e8e8e2" font-size="12.5" text-anchor="middle" font-weight="600">x = 74.8 µm</text>
<line x1="46.0" y1="40.0" x2="46.0" y2="321.0" stroke="#c3c2b7" stroke-width="1"/>
<line x1="42.0" y1="40.0" x2="50.0" y2="40.0" stroke="#c3c2b7" stroke-width="1"/>
<line x1="42.0" y1="321.0" x2="50.0" y2="321.0" stroke="#c3c2b7" stroke-width="1"/>
<text x="38.0" y="180.5" fill="#e8e8e2" font-size="12.5" text-anchor="middle" font-weight="600" transform="rotate(-90 38.0 180.5)">y = 73.4 µm</text>
<text x="62" y="616" fill="#898781" font-size="11">27 rows · die 75 × 73 = 5492 µm² · cells 3570 µm² @ 65% util</text>
</svg>