<svg viewBox="0 0 606 613" width="100%" xmlns="http://www.w3.org/2000/svg" font-family="system-ui,-apple-system,Segoe UI,sans-serif">
<rect x="0" y="0" width="606" height="613" rx="10" fill="#141413"/>
<text x="62" y="24" fill="#ffffff" font-size="14" font-weight="600">Design 2 — log_detector (K=1)</text>
<rect x="62.0" y="40.0" width="520.0" height="515.4" fill="#1f1f1d" stroke="#3a3a37" stroke-width="1"/>
<rect x="62.00" y="528.23" width="13.36" height="26.62" fill="#d95926"/>
<rect x="83.17" y="528.23" width="13.36" height="26.62" fill="#d95926"/>
<rect x="104.34" y="528.23" width="13.36" height="26.62" fill="#d95926"/>
<rect x="125.51" y="528.23" width="13.36" height="26.62" fill="#d95926"/>
<rect x="146.69" y="528.23" width="13.36" height="26.62" fill="#d95926"/>
<rect x="167.86" y="528.23" width="13.36" height="26.62" fill="#9085e9"/>
<rect x="189.03" y="528.23" width="17.95" height="26.62" fill="#9085e9"/>
<rect x="217.26" y="528.23" width="27.12" height="26.62" fill="#9085e9"/>
<rect x="259.60" y="528.23" width="13.36" height="26.62" fill="#9085e9"/>
<rect x="280.77" y="528.23" width="17.95" height="26.62" fill="#9085e9"/>
<rect x="309.00" y="528.23" width="13.36" height="26.62" fill="#9085e9"/>
<rect x="330.17" y="528.23" width="27.12" height="26.62" fill="#9085e9"/>
<rect x="372.51" y="528.23" width="13.36" height="26.62" fill="#9085e9"/>
<rect x="393.69" y="528.23" width="13.36" height="26.62" fill="#9085e9"/>
<rect x="414.86" y="528.23" width="13.36" height="26.62" fill="#9085e9"/>
<rect x="436.03" y="528.23" width="31.71" height="26.62" fill="#9085e9"/>
<rect x="485.43" y="528.23" width="22.54" height="26.62" fill="#9085e9"/>
<rect x="520.71" y="528.23" width="22.54" height="26.62" fill="#d95926"/>
<rect x="62.00" y="501.11" width="22.54" height="26.62" fill="#9085e9"/>
<rect x="97.29" y="501.11" width="13.36" height="26.62" fill="#9085e9"/>
<rect x="118.46" y="501.11" width="22.54" height="26.62" fill="#9085e9"/>
<rect x="153.74" y="501.11" width="22.54" height="26.62" fill="#9085e9"/>
<rect x="189.03" y="501.11" width="13.36" height="26.62" fill="#9085e9"/>
<rect x="210.20" y="501.11" width="31.71" height="26.62" fill="#9085e9"/>
<rect x="259.60" y="501.11" width="13.36" height="26.62" fill="#9085e9"/>
<rect x="280.77" y="501.11" width="27.12" height="26.62" fill="#9085e9"/>
<rect x="323.11" y="501.11" width="22.54" height="26.62" fill="#9085e9"/>
<rect x="358.40" y="501.11" width="13.36" height="26.62" fill="#9085e9"/>
<rect x="379.57" y="501.11" width="22.54" height="26.62" fill="#9085e9"/>
<rect x="414.86" y="501.11" width="22.54" height="26.62" fill="#d95926"/>
<rect x="450.14" y="501.11" width="36.30" height="26.62" fill="#9085e9"/>
<rect x="506.60" y="501.11" width="13.36" height="26.62" fill="#9085e9"/>
<rect x="527.77" y="501.11" width="17.95" height="26.62" fill="#9085e9"/>
<rect x="62.00" y="473.98" width="22.54" height="26.62" fill="#d95926"/>
<rect x="97.29" y="473.98" width="22.54" height="26.62" fill="#9085e9"/>
<rect x="132.57" y="473.98" width="17.95" height="26.62" fill="#9085e9"/>
<rect x="160.80" y="473.98" width="22.54" height="26.62" fill="#d95926"/>
<rect x="196.09" y="473.98" width="22.54" height="26.62" fill="#d95926"/>
<rect x="231.37" y="473.98" width="31.71" height="26.62" fill="#9085e9"/>
<rect x="280.77" y="473.98" width="31.71" height="26.62" fill="#9085e9"/>
<rect x="330.17" y="473.98" width="22.54" height="26.62" fill="#9085e9"/>
<rect x="365.46" y="473.98" width="31.71" height="26.62" fill="#199e70"/>
<rect x="414.86" y="473.98" width="17.95" height="26.62" fill="#9085e9"/>
<rect x="443.09" y="473.98" width="31.71" height="26.62" fill="#199e70"/>
<rect x="492.49" y="473.98" width="22.54" height="26.62" fill="#d95926"/>
<rect x="527.77" y="473.98" width="13.36" height="26.62" fill="#9085e9"/>
<rect x="62.00" y="446.86" width="31.71" height="26.62" fill="#9085e9"/>
<rect x="111.40" y="446.86" width="22.54" height="26.62" fill="#d95926"/>
<rect x="146.69" y="446.86" width="31.71" height="26.62" fill="#9085e9"/>
<rect x="196.09" y="446.86" width="31.71" height="26.62" fill="#9085e9"/>
<rect x="245.49" y="446.86" width="22.54" height="26.62" fill="#9085e9"/>
<rect x="280.77" y="446.86" width="31.71" height="26.62" fill="#9085e9"/>
<rect x="330.17" y="446.86" width="17.95" height="26.62" fill="#9085e9"/>
<rect x="358.40" y="446.86" width="31.71" height="26.62" fill="#9085e9"/>
<rect x="407.80" y="446.86" width="31.71" height="26.62" fill="#9085e9"/>
<rect x="457.20" y="446.86" width="17.95" height="26.62" fill="#9085e9"/>
<rect x="485.43" y="446.86" width="31.71" height="26.62" fill="#9085e9"/>
<rect x="534.83" y="446.86" width="22.54" height="26.62" fill="#9085e9"/>
<rect x="62.00" y="419.74" width="22.54" height="26.62" fill="#9085e9"/>
<rect x="97.29" y="419.74" width="27.12" height="26.62" fill="#9085e9"/>
<rect x="139.63" y="419.74" width="13.36" height="26.62" fill="#9085e9"/>
<rect x="160.80" y="419.74" width="13.36" height="26.62" fill="#9085e9"/>
<rect x="181.97" y="419.74" width="31.71" height="26.62" fill="#199e70"/>
<rect x="231.37" y="419.74" width="31.71" height="26.62" fill="#199e70"/>
<rect x="280.77" y="419.74" width="13.36" height="26.62" fill="#9085e9"/>
<rect x="301.94" y="419.74" width="13.36" height="26.62" fill="#9085e9"/>
<rect x="323.11" y="419.74" width="13.36" height="26.62" fill="#d95926"/>
<rect x="344.29" y="419.74" width="22.54" height="26.62" fill="#9085e9"/>
<rect x="379.57" y="419.74" width="22.54" height="26.62" fill="#9085e9"/>
<rect x="414.86" y="419.74" width="22.54" height="26.62" fill="#9085e9"/>
<rect x="450.14" y="419.74" width="31.71" height="26.62" fill="#199e70"/>
<rect x="499.54" y="419.74" width="31.71" height="26.62" fill="#199e70"/>
<rect x="62.00" y="392.61" width="31.71" height="26.62" fill="#9085e9"/>
<rect x="111.40" y="392.61" width="13.36" height="26.62" fill="#9085e9"/>
<rect x="132.57" y="392.61" width="17.95" height="26.62" fill="#9085e9"/>
<rect x="160.80" y="392.61" width="36.30" height="26.62" fill="#199e70"/>
<rect x="217.26" y="392.61" width="31.71" height="26.62" fill="#199e70"/>
<rect x="266.66" y="392.61" width="36.30" height="26.62" fill="#199e70"/>
<rect x="323.11" y="392.61" width="31.71" height="26.62" fill="#9085e9"/>
<rect x="372.51" y="392.61" width="17.95" height="26.62" fill="#9085e9"/>
<rect x="400.74" y="392.61" width="13.36" height="26.62" fill="#9085e9"/>
<rect x="421.91" y="392.61" width="31.71" height="26.62" fill="#199e70"/>
<rect x="471.31" y="392.61" width="17.95" height="26.62" fill="#9085e9"/>
<rect x="499.54" y="392.61" width="27.12" height="26.62" fill="#9085e9"/>
<rect x="541.89" y="392.61" width="22.54" height="26.62" fill="#d95926"/>
<rect x="62.00" y="365.49" width="36.30" height="26.62" fill="#9085e9"/>
<rect x="118.46" y="365.49" width="13.36" height="26.62" fill="#9085e9"/>
<rect x="139.63" y="365.49" width="31.71" height="26.62" fill="#199e70"/>
<rect x="189.03" y="365.49" width="31.71" height="26.62" fill="#199e70"/>
<rect x="238.43" y="365.49" width="17.95" height="26.62" fill="#9085e9"/>
<rect x="266.66" y="365.49" width="17.95" height="26.62" fill="#9085e9"/>
<rect x="294.89" y="365.49" width="31.71" height="26.62" fill="#199e70"/>
<rect x="344.29" y="365.49" width="31.71" height="26.62" fill="#199e70"/>
<rect x="393.69" y="365.49" width="31.71" height="26.62" fill="#199e70"/>
<rect x="443.09" y="365.49" width="22.54" height="26.62" fill="#d95926"/>
<rect x="478.37" y="365.49" width="13.36" height="26.62" fill="#9085e9"/>
<rect x="499.54" y="365.49" width="17.95" height="26.62" fill="#9085e9"/>
<rect x="527.77" y="365.49" width="13.36" height="26.62" fill="#9085e9"/>
<rect x="62.00" y="338.36" width="36.30" height="26.62" fill="#199e70"/>
<rect x="118.46" y="338.36" width="31.71" height="26.62" fill="#9085e9"/>
<rect x="167.86" y="338.36" width="27.12" height="26.62" fill="#9085e9"/>
<rect x="210.20" y="338.36" width="13.36" height="26.62" fill="#9085e9"/>
<rect x="231.37" y="338.36" width="17.95" height="26.62" fill="#9085e9"/>
<rect x="259.60" y="338.36" width="36.30" height="26.62" fill="#c98500"/>
<rect x="316.06" y="338.36" width="31.71" height="26.62" fill="#199e70"/>
<rect x="365.46" y="338.36" width="36.30" height="26.62" fill="#c98500"/>
<rect x="421.91" y="338.36" width="31.71" height="26.62" fill="#199e70"/>
<rect x="471.31" y="338.36" width="13.36" height="26.62" fill="#9085e9"/>
<rect x="492.49" y="338.36" width="17.95" height="26.62" fill="#9085e9"/>
<rect x="520.71" y="338.36" width="17.95" height="26.62" fill="#9085e9"/>
<rect x="62.00" y="311.24" width="22.54" height="26.62" fill="#9085e9"/>
<rect x="97.29" y="311.24" width="17.95" height="26.62" fill="#9085e9"/>
<rect x="125.51" y="311.24" width="27.12" height="26.62" fill="#9085e9"/>
<rect x="167.86" y="311.24" width="17.95" height="26.62" fill="#9085e9"/>
<rect x="196.09" y="311.24" width="27.12" height="26.62" fill="#9085e9"/>
<rect x="238.43" y="311.24" width="17.95" height="26.62" fill="#9085e9"/>
<rect x="266.66" y="311.24" width="17.95" height="26.62" fill="#9085e9"/>
<rect x="294.89" y="311.24" width="17.95" height="26.62" fill="#9085e9"/>
<rect x="323.11" y="311.24" width="13.36" height="26.62" fill="#9085e9"/>
<rect x="344.29" y="311.24" width="17.95" height="26.62" fill="#9085e9"/>
<rect x="372.51" y="311.24" width="31.71" height="26.62" fill="#9085e9"/>
<rect x="421.91" y="311.24" width="22.54" height="26.62" fill="#9085e9"/>
<rect x="457.20" y="311.24" width="27.12" height="26.62" fill="#9085e9"/>
<rect x="499.54" y="311.24" width="40.88" height="26.62" fill="#c98500"/>
<rect x="62.00" y="284.12" width="31.71" height="26.62" fill="#9085e9"/>
<rect x="111.40" y="284.12" width="31.71" height="26.62" fill="#9085e9"/>
<rect x="160.80" y="284.12" width="31.71" height="26.62" fill="#9085e9"/>
<rect x="210.20" y="284.12" width="13.36" height="26.62" fill="#9085e9"/>
<rect x="231.37" y="284.12" width="17.95" height="26.62" fill="#9085e9"/>
<rect x="259.60" y="284.12" width="22.54" height="26.62" fill="#d95926"/>
<rect x="294.89" y="284.12" width="13.36" height="26.62" fill="#9085e9"/>
<rect x="316.06" y="284.12" width="17.95" height="26.62" fill="#9085e9"/>
<rect x="344.29" y="284.12" width="17.95" height="26.62" fill="#9085e9"/>
<rect x="372.51" y="284.12" width="27.12" height="26.62" fill="#9085e9"/>
<rect x="414.86" y="284.12" width="17.95" height="26.62" fill="#9085e9"/>
<rect x="443.09" y="284.12" width="31.71" height="26.62" fill="#9085e9"/>
<rect x="492.49" y="284.12" width="13.36" height="26.62" fill="#9085e9"/>
<rect x="513.66" y="284.12" width="13.36" height="26.62" fill="#9085e9"/>
<rect x="534.83" y="284.12" width="22.54" height="26.62" fill="#d95926"/>
<rect x="62.00" y="256.99" width="13.36" height="26.62" fill="#9085e9"/>
<rect x="83.17" y="256.99" width="31.71" height="26.62" fill="#9085e9"/>
<rect x="132.57" y="256.99" width="17.95" height="26.62" fill="#9085e9"/>
<rect x="160.80" y="256.99" width="17.95" height="26.62" fill="#9085e9"/>
<rect x="189.03" y="256.99" width="17.95" height="26.62" fill="#9085e9"/>
<rect x="217.26" y="256.99" width="17.95" height="26.62" fill="#9085e9"/>
<rect x="245.49" y="256.99" width="13.36" height="26.62" fill="#9085e9"/>
<rect x="266.66" y="256.99" width="13.36" height="26.62" fill="#9085e9"/>
<rect x="287.83" y="256.99" width="22.54" height="26.62" fill="#9085e9"/>
<rect x="323.11" y="256.99" width="17.95" height="26.62" fill="#9085e9"/>
<rect x="351.34" y="256.99" width="31.71" height="26.62" fill="#9085e9"/>
<rect x="400.74" y="256.99" width="13.36" height="26.62" fill="#9085e9"/>
<rect x="421.91" y="256.99" width="31.71" height="26.62" fill="#9085e9"/>
<rect x="471.31" y="256.99" width="17.95" height="26.62" fill="#9085e9"/>
<rect x="499.54" y="256.99" width="17.95" height="26.62" fill="#9085e9"/>
<rect x="62.00" y="229.87" width="40.88" height="26.62" fill="#9085e9"/>
<rect x="125.51" y="229.87" width="27.12" height="26.62" fill="#9085e9"/>
<rect x="167.86" y="229.87" width="22.54" height="26.62" fill="#9085e9"/>
<rect x="203.14" y="229.87" width="13.36" height="26.62" fill="#9085e9"/>
<rect x="224.31" y="229.87" width="13.36" height="26.62" fill="#9085e9"/>
<rect x="245.49" y="229.87" width="17.95" height="26.62" fill="#9085e9"/>
<rect x="273.71" y="229.87" width="17.95" height="26.62" fill="#9085e9"/>
<rect x="301.94" y="229.87" width="13.36" height="26.62" fill="#9085e9"/>
<rect x="323.11" y="229.87" width="17.95" height="26.62" fill="#9085e9"/>
<rect x="351.34" y="229.87" width="17.95" height="26.62" fill="#9085e9"/>
<rect x="379.57" y="229.87" width="17.95" height="26.62" fill="#9085e9"/>
<rect x="407.80" y="229.87" width="13.36" height="26.62" fill="#9085e9"/>
<rect x="428.97" y="229.87" width="17.95" height="26.62" fill="#9085e9"/>
<rect x="457.20" y="229.87" width="22.54" height="26.62" fill="#9085e9"/>
<rect x="492.49" y="229.87" width="17.95" height="26.62" fill="#9085e9"/>
<rect x="520.71" y="229.87" width="17.95" height="26.62" fill="#9085e9"/>
<rect x="548.94" y="229.87" width="17.95" height="26.62" fill="#9085e9"/>
<rect x="62.00" y="202.74" width="17.95" height="26.62" fill="#9085e9"/>
<rect x="90.23" y="202.74" width="36.30" height="26.62" fill="#199e70"/>
<rect x="146.69" y="202.74" width="36.30" height="26.62" fill="#199e70"/>
<rect x="203.14" y="202.74" width="27.12" height="26.62" fill="#9085e9"/>
<rect x="245.49" y="202.74" width="22.54" height="26.62" fill="#9085e9"/>
<rect x="280.77" y="202.74" width="17.95" height="26.62" fill="#9085e9"/>
<rect x="309.00" y="202.74" width="27.12" height="26.62" fill="#9085e9"/>
<rect x="351.34" y="202.74" width="17.95" height="26.62" fill="#9085e9"/>
<rect x="379.57" y="202.74" width="72.99" height="26.62" fill="#3987e5"/>
<rect x="62.00" y="175.62" width="72.99" height="26.62" fill="#3987e5"/>
<rect x="174.91" y="175.62" width="72.99" height="26.62" fill="#3987e5"/>
<rect x="287.83" y="175.62" width="72.99" height="26.62" fill="#3987e5"/>
<rect x="400.74" y="175.62" width="72.99" height="26.62" fill="#3987e5"/>
<rect x="62.00" y="148.50" width="72.99" height="26.62" fill="#3987e5"/>
<rect x="174.91" y="148.50" width="72.99" height="26.62" fill="#3987e5"/>
<rect x="287.83" y="148.50" width="72.99" height="26.62" fill="#3987e5"/>
<rect x="400.74" y="148.50" width="72.99" height="26.62" fill="#3987e5"/>
<rect x="62.00" y="121.37" width="72.99" height="26.62" fill="#3987e5"/>
<rect x="174.91" y="121.37" width="72.99" height="26.62" fill="#3987e5"/>
<rect x="287.83" y="121.37" width="72.99" height="26.62" fill="#3987e5"/>
<rect x="400.74" y="121.37" width="72.99" height="26.62" fill="#3987e5"/>
<rect x="62.00" y="94.25" width="72.99" height="26.62" fill="#3987e5"/>
<rect x="174.91" y="94.25" width="72.99" height="26.62" fill="#3987e5"/>
<rect x="287.83" y="94.25" width="72.99" height="26.62" fill="#3987e5"/>
<rect x="400.74" y="94.25" width="72.99" height="26.62" fill="#3987e5"/>
<rect x="62.00" y="67.12" width="72.99" height="26.62" fill="#3987e5"/>
<rect x="174.91" y="67.12" width="72.99" height="26.62" fill="#3987e5"/>
<rect x="287.83" y="67.12" width="72.99" height="26.62" fill="#3987e5"/>
<rect x="400.74" y="67.12" width="72.99" height="26.62" fill="#3987e5"/>
<rect x="62.00" y="40.00" width="72.99" height="26.62" fill="#3987e5"/>
<rect x="174.91" y="40.00" width="72.99" height="26.62" fill="#3987e5"/>
<rect x="287.83" y="40.00" width="72.99" height="26.62" fill="#3987e5"/>
<rect x="400.74" y="40.00" width="72.99" height="26.62" fill="#3987e5"/>
<rect x="62.00" y="40.00" width="72.99" height="26.62" fill="#3987e5"/>
<rect x="174.91" y="40.00" width="72.99" height="26.62" fill="#3987e5"/>
<rect x="287.83" y="40.00" width="72.99" height="26.62" fill="#3987e5"/>
<rect x="400.74" y="40.00" width="72.99" height="26.62" fill="#3987e5"/>
<rect x="62.00" y="40.00" width="72.99" height="26.62" fill="#3987e5"/>
<rect x="174.91" y="40.00" width="72.99" height="26.62" fill="#3987e5"/>
<rect x="287.83" y="40.00" width="72.99" height="26.62" fill="#3987e5"/>
<line x1="62.0" y1="575.4" x2="582.0" y2="575.4" stroke="#c3c2b7" stroke-width="1"/>
<line x1="62.0" y1="571.4" x2="62.0" y2="579.4" stroke="#c3c2b7" stroke-width="1"/>
<line x1="582.0" y1="571.4" x2="582.0" y2="579.4" stroke="#c3c2b7" stroke-width="1"/>
<text x="322.0" y="593.4" fill="#e8e8e2" font-size="12.5" text-anchor="middle" font-weight="600">x = 52.1 µm</text>
<line x1="46.0" y1="40.0" x2="46.0" y2="555.4" stroke="#c3c2b7" stroke-width="1"/>
<line x1="42.0" y1="40.0" x2="50.0" y2="40.0" stroke="#c3c2b7" stroke-width="1"/>
<line x1="42.0" y1="555.4" x2="50.0" y2="555.4" stroke="#c3c2b7" stroke-width="1"/>
<text x="38.0" y="297.7" fill="#e8e8e2" font-size="12.5" text-anchor="middle" font-weight="600" transform="rotate(-90 38.0 297.7)">y = 51.7 µm</text>
<text x="62" y="605" fill="#898781" font-size="11">19 rows · die 52 × 52 = 2695 µm² · cells 1752 µm² @ 65% util</text>
</svg>