<svg viewBox="0 0 606 641" width="100%" xmlns="http://www.w3.org/2000/svg" font-family="system-ui,-apple-system,Segoe UI,sans-serif">
<rect x="0" y="0" width="606" height="641" rx="10" fill="#141413"/>
<text x="62" y="24" fill="#ffffff" font-size="14" font-weight="600">Design 1 — mult_detector (baseline)</text>
<rect x="62.0" y="40.0" width="520.0" height="543.0" fill="#1f1f1d" stroke="#3a3a37" stroke-width="1"/>
<rect x="62.00" y="559.41" width="11.58" height="23.11" fill="#d95926"/>
<rect x="80.43" y="559.41" width="11.58" height="23.11" fill="#d95926"/>
<rect x="98.86" y="559.41" width="11.58" height="23.11" fill="#9085e9"/>
<rect x="117.29" y="559.41" width="11.58" height="23.11" fill="#9085e9"/>
<rect x="135.71" y="559.41" width="11.58" height="23.11" fill="#9085e9"/>
<rect x="154.14" y="559.41" width="11.58" height="23.11" fill="#9085e9"/>
<rect x="172.57" y="559.41" width="31.54" height="23.11" fill="#199e70"/>
<rect x="221.71" y="559.41" width="19.56" height="23.11" fill="#9085e9"/>
<rect x="252.43" y="559.41" width="11.58" height="23.11" fill="#9085e9"/>
<rect x="270.85" y="559.41" width="19.56" height="23.11" fill="#9085e9"/>
<rect x="301.57" y="559.41" width="27.55" height="23.11" fill="#9085e9"/>
<rect x="344.57" y="559.41" width="11.58" height="23.11" fill="#9085e9"/>
<rect x="363.00" y="559.41" width="19.56" height="23.11" fill="#9085e9"/>
<rect x="393.71" y="559.41" width="27.55" height="23.11" fill="#9085e9"/>
<rect x="436.71" y="559.41" width="11.58" height="23.11" fill="#9085e9"/>
<rect x="455.14" y="559.41" width="31.54" height="23.11" fill="#199e70"/>
<rect x="504.28" y="559.41" width="19.56" height="23.11" fill="#d95926"/>
<rect x="534.99" y="559.41" width="11.58" height="23.11" fill="#9085e9"/>
<rect x="62.00" y="535.80" width="31.54" height="23.11" fill="#c98500"/>
<rect x="111.14" y="535.80" width="19.56" height="23.11" fill="#9085e9"/>
<rect x="141.86" y="535.80" width="19.56" height="23.11" fill="#9085e9"/>
<rect x="172.57" y="535.80" width="27.55" height="23.11" fill="#9085e9"/>
<rect x="215.57" y="535.80" width="11.58" height="23.11" fill="#9085e9"/>
<rect x="234.00" y="535.80" width="27.55" height="23.11" fill="#199e70"/>
<rect x="277.00" y="535.80" width="11.58" height="23.11" fill="#9085e9"/>
<rect x="295.43" y="535.80" width="27.55" height="23.11" fill="#199e70"/>
<rect x="338.43" y="535.80" width="11.58" height="23.11" fill="#9085e9"/>
<rect x="356.85" y="535.80" width="11.58" height="23.11" fill="#9085e9"/>
<rect x="375.28" y="535.80" width="11.58" height="23.11" fill="#9085e9"/>
<rect x="393.71" y="535.80" width="11.58" height="23.11" fill="#9085e9"/>
<rect x="412.14" y="535.80" width="11.58" height="23.11" fill="#9085e9"/>
<rect x="430.57" y="535.80" width="31.54" height="23.11" fill="#199e70"/>
<rect x="479.71" y="535.80" width="11.58" height="23.11" fill="#9085e9"/>
<rect x="498.14" y="535.80" width="27.55" height="23.11" fill="#199e70"/>
<rect x="62.00" y="512.19" width="27.55" height="23.11" fill="#199e70"/>
<rect x="105.00" y="512.19" width="27.55" height="23.11" fill="#199e70"/>
<rect x="148.00" y="512.19" width="15.57" height="23.11" fill="#9085e9"/>
<rect x="172.57" y="512.19" width="19.56" height="23.11" fill="#9085e9"/>
<rect x="203.28" y="512.19" width="19.56" height="23.11" fill="#9085e9"/>
<rect x="234.00" y="512.19" width="23.56" height="23.11" fill="#9085e9"/>
<rect x="270.85" y="512.19" width="19.56" height="23.11" fill="#d95926"/>
<rect x="301.57" y="512.19" width="19.56" height="23.11" fill="#d95926"/>
<rect x="332.28" y="512.19" width="27.55" height="23.11" fill="#199e70"/>
<rect x="375.28" y="512.19" width="11.58" height="23.11" fill="#9085e9"/>
<rect x="393.71" y="512.19" width="15.57" height="23.11" fill="#9085e9"/>
<rect x="418.28" y="512.19" width="27.55" height="23.11" fill="#199e70"/>
<rect x="461.28" y="512.19" width="27.55" height="23.11" fill="#199e70"/>
<rect x="504.28" y="512.19" width="27.55" height="23.11" fill="#199e70"/>
<rect x="62.00" y="488.58" width="31.54" height="23.11" fill="#199e70"/>
<rect x="111.14" y="488.58" width="31.54" height="23.11" fill="#199e70"/>
<rect x="160.28" y="488.58" width="15.57" height="23.11" fill="#9085e9"/>
<rect x="184.86" y="488.58" width="15.57" height="23.11" fill="#9085e9"/>
<rect x="209.43" y="488.58" width="19.56" height="23.11" fill="#d95926"/>
<rect x="240.14" y="488.58" width="27.55" height="23.11" fill="#199e70"/>
<rect x="283.14" y="488.58" width="15.57" height="23.11" fill="#9085e9"/>
<rect x="307.71" y="488.58" width="11.58" height="23.11" fill="#9085e9"/>
<rect x="326.14" y="488.58" width="27.55" height="23.11" fill="#199e70"/>
<rect x="369.14" y="488.58" width="27.55" height="23.11" fill="#199e70"/>
<rect x="412.14" y="488.58" width="11.58" height="23.11" fill="#9085e9"/>
<rect x="430.57" y="488.58" width="31.54" height="23.11" fill="#199e70"/>
<rect x="479.71" y="488.58" width="11.58" height="23.11" fill="#9085e9"/>
<rect x="498.14" y="488.58" width="19.56" height="23.11" fill="#9085e9"/>
<rect x="528.85" y="488.58" width="19.56" height="23.11" fill="#d95926"/>
<rect x="62.00" y="464.97" width="27.55" height="23.11" fill="#199e70"/>
<rect x="105.00" y="464.97" width="11.58" height="23.11" fill="#d95926"/>
<rect x="123.43" y="464.97" width="71.47" height="23.11" fill="#199e70"/>
<rect x="234.00" y="464.97" width="11.58" height="23.11" fill="#9085e9"/>
<rect x="252.43" y="464.97" width="19.56" height="23.11" fill="#9085e9"/>
<rect x="283.14" y="464.97" width="27.55" height="23.11" fill="#9085e9"/>
<rect x="326.14" y="464.97" width="23.56" height="23.11" fill="#9085e9"/>
<rect x="363.00" y="464.97" width="19.56" height="23.11" fill="#9085e9"/>
<rect x="393.71" y="464.97" width="19.56" height="23.11" fill="#9085e9"/>
<rect x="424.42" y="464.97" width="75.46" height="23.11" fill="#199e70"/>
<rect x="62.00" y="441.36" width="31.54" height="23.11" fill="#199e70"/>
<rect x="111.14" y="441.36" width="71.47" height="23.11" fill="#199e70"/>
<rect x="221.71" y="441.36" width="27.55" height="23.11" fill="#199e70"/>
<rect x="264.71" y="441.36" width="11.58" height="23.11" fill="#9085e9"/>
<rect x="283.14" y="441.36" width="11.58" height="23.11" fill="#9085e9"/>
<rect x="301.57" y="441.36" width="27.55" height="23.11" fill="#199e70"/>
<rect x="344.57" y="441.36" width="11.58" height="23.11" fill="#9085e9"/>
<rect x="363.00" y="441.36" width="31.54" height="23.11" fill="#199e70"/>
<rect x="412.14" y="441.36" width="71.47" height="23.11" fill="#199e70"/>
<rect x="522.71" y="441.36" width="31.54" height="23.11" fill="#199e70"/>
<rect x="62.00" y="417.75" width="27.55" height="23.11" fill="#199e70"/>
<rect x="105.00" y="417.75" width="19.56" height="23.11" fill="#d95926"/>
<rect x="135.71" y="417.75" width="27.55" height="23.11" fill="#199e70"/>
<rect x="178.71" y="417.75" width="31.54" height="23.11" fill="#199e70"/>
<rect x="227.86" y="417.75" width="27.55" height="23.11" fill="#199e70"/>
<rect x="270.85" y="417.75" width="19.56" height="23.11" fill="#d95926"/>
<rect x="301.57" y="417.75" width="27.55" height="23.11" fill="#199e70"/>
<rect x="344.57" y="417.75" width="15.57" height="23.11" fill="#9085e9"/>
<rect x="369.14" y="417.75" width="11.58" height="23.11" fill="#9085e9"/>
<rect x="387.57" y="417.75" width="11.58" height="23.11" fill="#9085e9"/>
<rect x="406.00" y="417.75" width="27.55" height="23.11" fill="#199e70"/>
<rect x="449.00" y="417.75" width="27.55" height="23.11" fill="#199e70"/>
<rect x="491.99" y="417.75" width="11.58" height="23.11" fill="#9085e9"/>
<rect x="510.42" y="417.75" width="31.54" height="23.11" fill="#199e70"/>
<rect x="62.00" y="394.14" width="27.55" height="23.11" fill="#199e70"/>
<rect x="105.00" y="394.14" width="19.56" height="23.11" fill="#d95926"/>
<rect x="135.71" y="394.14" width="11.58" height="23.11" fill="#9085e9"/>
<rect x="154.14" y="394.14" width="11.58" height="23.11" fill="#9085e9"/>
<rect x="172.57" y="394.14" width="11.58" height="23.11" fill="#9085e9"/>
<rect x="191.00" y="394.14" width="11.58" height="23.11" fill="#9085e9"/>
<rect x="209.43" y="394.14" width="19.56" height="23.11" fill="#9085e9"/>
<rect x="240.14" y="394.14" width="23.56" height="23.11" fill="#9085e9"/>
<rect x="277.00" y="394.14" width="19.56" height="23.11" fill="#d95926"/>
<rect x="307.71" y="394.14" width="15.57" height="23.11" fill="#9085e9"/>
<rect x="332.28" y="394.14" width="19.56" height="23.11" fill="#9085e9"/>
<rect x="363.00" y="394.14" width="27.55" height="23.11" fill="#9085e9"/>
<rect x="406.00" y="394.14" width="27.55" height="23.11" fill="#9085e9"/>
<rect x="449.00" y="394.14" width="75.46" height="23.11" fill="#199e70"/>
<rect x="62.00" y="370.54" width="19.56" height="23.11" fill="#d95926"/>
<rect x="92.71" y="370.54" width="27.55" height="23.11" fill="#199e70"/>
<rect x="135.71" y="370.54" width="11.58" height="23.11" fill="#9085e9"/>
<rect x="154.14" y="370.54" width="27.55" height="23.11" fill="#199e70"/>
<rect x="197.14" y="370.54" width="11.58" height="23.11" fill="#9085e9"/>
<rect x="215.57" y="370.54" width="31.54" height="23.11" fill="#199e70"/>
<rect x="264.71" y="370.54" width="27.55" height="23.11" fill="#199e70"/>
<rect x="307.71" y="370.54" width="71.47" height="23.11" fill="#199e70"/>
<rect x="418.28" y="370.54" width="27.55" height="23.11" fill="#199e70"/>
<rect x="461.28" y="370.54" width="15.57" height="23.11" fill="#9085e9"/>
<rect x="485.85" y="370.54" width="27.55" height="23.11" fill="#199e70"/>
<rect x="528.85" y="370.54" width="11.58" height="23.11" fill="#d95926"/>
<rect x="62.00" y="346.93" width="27.55" height="23.11" fill="#199e70"/>
<rect x="105.00" y="346.93" width="31.54" height="23.11" fill="#199e70"/>
<rect x="154.14" y="346.93" width="31.54" height="23.11" fill="#199e70"/>
<rect x="203.28" y="346.93" width="27.55" height="23.11" fill="#199e70"/>
<rect x="246.28" y="346.93" width="27.55" height="23.11" fill="#199e70"/>
<rect x="289.28" y="346.93" width="11.58" height="23.11" fill="#9085e9"/>
<rect x="307.71" y="346.93" width="31.54" height="23.11" fill="#199e70"/>
<rect x="356.85" y="346.93" width="27.55" height="23.11" fill="#199e70"/>
<rect x="399.85" y="346.93" width="19.56" height="23.11" fill="#9085e9"/>
<rect x="430.57" y="346.93" width="27.55" height="23.11" fill="#199e70"/>
<rect x="473.57" y="346.93" width="11.58" height="23.11" fill="#9085e9"/>
<rect x="491.99" y="346.93" width="11.58" height="23.11" fill="#9085e9"/>
<rect x="510.42" y="346.93" width="19.56" height="23.11" fill="#9085e9"/>
<rect x="541.14" y="346.93" width="23.56" height="23.11" fill="#9085e9"/>
<rect x="62.00" y="323.32" width="19.56" height="23.11" fill="#d95926"/>
<rect x="92.71" y="323.32" width="31.54" height="23.11" fill="#199e70"/>
<rect x="141.86" y="323.32" width="71.47" height="23.11" fill="#199e70"/>
<rect x="252.43" y="323.32" width="27.55" height="23.11" fill="#199e70"/>
<rect x="295.43" y="323.32" width="11.58" height="23.11" fill="#9085e9"/>
<rect x="313.85" y="323.32" width="19.56" height="23.11" fill="#9085e9"/>
<rect x="344.57" y="323.32" width="27.55" height="23.11" fill="#199e70"/>
<rect x="387.57" y="323.32" width="71.47" height="23.11" fill="#199e70"/>
<rect x="498.14" y="323.32" width="27.55" height="23.11" fill="#199e70"/>
<rect x="62.00" y="299.71" width="31.54" height="23.11" fill="#199e70"/>
<rect x="111.14" y="299.71" width="11.58" height="23.11" fill="#d95926"/>
<rect x="129.57" y="299.71" width="27.55" height="23.11" fill="#199e70"/>
<rect x="172.57" y="299.71" width="31.54" height="23.11" fill="#199e70"/>
<rect x="221.71" y="299.71" width="27.55" height="23.11" fill="#199e70"/>
<rect x="264.71" y="299.71" width="31.54" height="23.11" fill="#199e70"/>
<rect x="313.85" y="299.71" width="27.55" height="23.11" fill="#199e70"/>
<rect x="356.85" y="299.71" width="11.58" height="23.11" fill="#9085e9"/>
<rect x="375.28" y="299.71" width="27.55" height="23.11" fill="#199e70"/>
<rect x="418.28" y="299.71" width="31.54" height="23.11" fill="#199e70"/>
<rect x="467.42" y="299.71" width="27.55" height="23.11" fill="#199e70"/>
<rect x="510.42" y="299.71" width="19.56" height="23.11" fill="#d95926"/>
<rect x="62.00" y="276.10" width="27.55" height="23.11" fill="#199e70"/>
<rect x="105.00" y="276.10" width="71.47" height="23.11" fill="#199e70"/>
<rect x="215.57" y="276.10" width="11.58" height="23.11" fill="#9085e9"/>
<rect x="234.00" y="276.10" width="27.55" height="23.11" fill="#199e70"/>
<rect x="277.00" y="276.10" width="15.57" height="23.11" fill="#9085e9"/>
<rect x="301.57" y="276.10" width="27.55" height="23.11" fill="#9085e9"/>
<rect x="344.57" y="276.10" width="11.58" height="23.11" fill="#9085e9"/>
<rect x="363.00" y="276.10" width="31.54" height="23.11" fill="#199e70"/>
<rect x="412.14" y="276.10" width="27.55" height="23.11" fill="#199e70"/>
<rect x="455.14" y="276.10" width="19.56" height="23.11" fill="#d95926"/>
<rect x="485.85" y="276.10" width="11.58" height="23.11" fill="#9085e9"/>
<rect x="504.28" y="276.10" width="31.54" height="23.11" fill="#199e70"/>
<rect x="553.42" y="276.10" width="11.58" height="23.11" fill="#d95926"/>
<rect x="62.00" y="252.49" width="27.55" height="23.11" fill="#199e70"/>
<rect x="105.00" y="252.49" width="71.47" height="23.11" fill="#199e70"/>
<rect x="215.57" y="252.49" width="27.55" height="23.11" fill="#199e70"/>
<rect x="258.57" y="252.49" width="11.58" height="23.11" fill="#9085e9"/>
<rect x="277.00" y="252.49" width="19.56" height="23.11" fill="#9085e9"/>
<rect x="307.71" y="252.49" width="27.55" height="23.11" fill="#199e70"/>
<rect x="350.71" y="252.49" width="31.54" height="23.11" fill="#199e70"/>
<rect x="399.85" y="252.49" width="71.47" height="23.11" fill="#199e70"/>
<rect x="510.42" y="252.49" width="19.56" height="23.11" fill="#9085e9"/>
<rect x="541.14" y="252.49" width="11.58" height="23.11" fill="#9085e9"/>
<rect x="62.00" y="228.88" width="71.47" height="23.11" fill="#199e70"/>
<rect x="172.57" y="228.88" width="19.56" height="23.11" fill="#9085e9"/>
<rect x="203.28" y="228.88" width="75.46" height="23.11" fill="#199e70"/>
<rect x="320.00" y="228.88" width="31.54" height="23.11" fill="#199e70"/>
<rect x="369.14" y="228.88" width="27.55" height="23.11" fill="#199e70"/>
<rect x="412.14" y="228.88" width="15.57" height="23.11" fill="#9085e9"/>
<rect x="436.71" y="228.88" width="19.56" height="23.11" fill="#d95926"/>
<rect x="467.42" y="228.88" width="27.55" height="23.11" fill="#199e70"/>
<rect x="510.42" y="228.88" width="15.57" height="23.11" fill="#9085e9"/>
<rect x="534.99" y="228.88" width="27.55" height="23.11" fill="#199e70"/>
<rect x="62.00" y="205.27" width="15.57" height="23.11" fill="#9085e9"/>
<rect x="86.57" y="205.27" width="11.58" height="23.11" fill="#9085e9"/>
<rect x="105.00" y="205.27" width="23.56" height="23.11" fill="#9085e9"/>
<rect x="141.86" y="205.27" width="27.55" height="23.11" fill="#199e70"/>
<rect x="184.86" y="205.27" width="27.55" height="23.11" fill="#199e70"/>
<rect x="227.86" y="205.27" width="11.58" height="23.11" fill="#9085e9"/>
<rect x="246.28" y="205.27" width="27.55" height="23.11" fill="#199e70"/>
<rect x="289.28" y="205.27" width="27.55" height="23.11" fill="#199e70"/>
<rect x="332.28" y="205.27" width="11.58" height="23.11" fill="#9085e9"/>
<rect x="350.71" y="205.27" width="71.47" height="23.11" fill="#199e70"/>
<rect x="461.28" y="205.27" width="19.56" height="23.11" fill="#9085e9"/>
<rect x="491.99" y="205.27" width="19.56" height="23.11" fill="#d95926"/>
<rect x="522.71" y="205.27" width="27.55" height="23.11" fill="#199e70"/>
<rect x="62.00" y="181.66" width="27.55" height="23.11" fill="#199e70"/>
<rect x="105.00" y="181.66" width="19.56" height="23.11" fill="#9085e9"/>
<rect x="135.71" y="181.66" width="11.58" height="23.11" fill="#9085e9"/>
<rect x="154.14" y="181.66" width="19.56" height="23.11" fill="#9085e9"/>
<rect x="184.86" y="181.66" width="27.55" height="23.11" fill="#199e70"/>
<rect x="227.86" y="181.66" width="11.58" height="23.11" fill="#9085e9"/>
<rect x="246.28" y="181.66" width="27.55" height="23.11" fill="#199e70"/>
<rect x="289.28" y="181.66" width="11.58" height="23.11" fill="#9085e9"/>
<rect x="307.71" y="181.66" width="11.58" height="23.11" fill="#9085e9"/>
<rect x="326.14" y="181.66" width="23.56" height="23.11" fill="#9085e9"/>
<rect x="363.00" y="181.66" width="27.55" height="23.11" fill="#9085e9"/>
<rect x="406.00" y="181.66" width="15.57" height="23.11" fill="#9085e9"/>
<rect x="430.57" y="181.66" width="15.57" height="23.11" fill="#9085e9"/>
<rect x="455.14" y="181.66" width="19.56" height="23.11" fill="#9085e9"/>
<rect x="485.85" y="181.66" width="31.54" height="23.11" fill="#199e70"/>
<rect x="534.99" y="181.66" width="11.58" height="23.11" fill="#9085e9"/>
<rect x="62.00" y="158.05" width="27.55" height="23.11" fill="#199e70"/>
<rect x="105.00" y="158.05" width="11.58" height="23.11" fill="#9085e9"/>
<rect x="123.43" y="158.05" width="11.58" height="23.11" fill="#9085e9"/>
<rect x="141.86" y="158.05" width="27.55" height="23.11" fill="#9085e9"/>
<rect x="184.86" y="158.05" width="11.58" height="23.11" fill="#9085e9"/>
<rect x="203.28" y="158.05" width="27.55" height="23.11" fill="#9085e9"/>
<rect x="246.28" y="158.05" width="19.56" height="23.11" fill="#9085e9"/>
<rect x="277.00" y="158.05" width="27.55" height="23.11" fill="#199e70"/>
<rect x="320.00" y="158.05" width="11.58" height="23.11" fill="#9085e9"/>
<rect x="338.43" y="158.05" width="23.56" height="23.11" fill="#9085e9"/>
<rect x="375.28" y="158.05" width="27.55" height="23.11" fill="#199e70"/>
<rect x="418.28" y="158.05" width="23.56" height="23.11" fill="#9085e9"/>
<rect x="455.14" y="158.05" width="63.48" height="23.11" fill="#3987e5"/>
<rect x="62.00" y="134.44" width="63.48" height="23.11" fill="#3987e5"/>
<rect x="160.28" y="134.44" width="63.48" height="23.11" fill="#3987e5"/>
<rect x="258.57" y="134.44" width="63.48" height="23.11" fill="#3987e5"/>
<rect x="356.85" y="134.44" width="63.48" height="23.11" fill="#3987e5"/>
<rect x="455.14" y="134.44" width="63.48" height="23.11" fill="#3987e5"/>
<rect x="62.00" y="110.83" width="63.48" height="23.11" fill="#3987e5"/>
<rect x="160.28" y="110.83" width="63.48" height="23.11" fill="#3987e5"/>
<rect x="258.57" y="110.83" width="63.48" height="23.11" fill="#3987e5"/>
<rect x="356.85" y="110.83" width="63.48" height="23.11" fill="#3987e5"/>
<rect x="455.14" y="110.83" width="63.48" height="23.11" fill="#3987e5"/>
<rect x="62.00" y="87.22" width="63.48" height="23.11" fill="#3987e5"/>
<rect x="160.28" y="87.22" width="63.48" height="23.11" fill="#3987e5"/>
<rect x="258.57" y="87.22" width="63.48" height="23.11" fill="#3987e5"/>
<rect x="356.85" y="87.22" width="63.48" height="23.11" fill="#3987e5"/>
<rect x="455.14" y="87.22" width="63.48" height="23.11" fill="#3987e5"/>
<rect x="62.00" y="63.61" width="63.48" height="23.11" fill="#3987e5"/>
<rect x="160.28" y="63.61" width="63.48" height="23.11" fill="#3987e5"/>
<rect x="258.57" y="63.61" width="63.48" height="23.11" fill="#3987e5"/>
<rect x="356.85" y="63.61" width="63.48" height="23.11" fill="#3987e5"/>
<rect x="455.14" y="63.61" width="63.48" height="23.11" fill="#3987e5"/>
<rect x="62.00" y="40.00" width="63.48" height="23.11" fill="#3987e5"/>
<rect x="160.28" y="40.00" width="63.48" height="23.11" fill="#3987e5"/>
<rect x="258.57" y="40.00" width="63.48" height="23.11" fill="#3987e5"/>
<rect x="356.85" y="40.00" width="63.48" height="23.11" fill="#3987e5"/>
<rect x="455.14" y="40.00" width="63.48" height="23.11" fill="#3987e5"/>
<rect x="62.00" y="40.00" width="63.48" height="23.11" fill="#3987e5"/>
<rect x="160.28" y="40.00" width="63.48" height="23.11" fill="#3987e5"/>
<rect x="258.57" y="40.00" width="63.48" height="23.11" fill="#3987e5"/>
<rect x="356.85" y="40.00" width="63.48" height="23.11" fill="#3987e5"/>
<rect x="455.14" y="40.00" width="63.48" height="23.11" fill="#3987e5"/>
<rect x="62.00" y="40.00" width="63.48" height="23.11" fill="#3987e5"/>
<line x1="62.0" y1="603.0" x2="582.0" y2="603.0" stroke="#c3c2b7" stroke-width="1"/>
<line x1="62.0" y1="599.0" x2="62.0" y2="607.0" stroke="#c3c2b7" stroke-width="1"/>
<line x1="582.0" y1="599.0" x2="582.0" y2="607.0" stroke="#c3c2b7" stroke-width="1"/>
<text x="322.0" y="621.0" fill="#e8e8e2" font-size="12.5" text-anchor="middle" font-weight="600">x = 59.9 µm</text>
<line x1="46.0" y1="40.0" x2="46.0" y2="583.0" stroke="#c3c2b7" stroke-width="1"/>
<line x1="42.0" y1="40.0" x2="50.0" y2="40.0" stroke="#c3c2b7" stroke-width="1"/>
<line x1="42.0" y1="583.0" x2="50.0" y2="583.0" stroke="#c3c2b7" stroke-width="1"/>
<text x="38.0" y="311.5" fill="#e8e8e2" font-size="12.5" text-anchor="middle" font-weight="600" transform="rotate(-90 38.0 311.5)">y = 62.6 µm</text>
<text x="62" y="633" fill="#898781" font-size="11">23 rows · die 60 × 63 = 3748 µm² · cells 2436 µm² @ 65% util</text>
</svg>